<?xml version="1.0" encoding="utf-8"?>
<!-- Generator: Adobe Illustrator 21.1.0, SVG Export Plug-In . SVG Version: 6.00 Build 0)  -->
<svg version="1.1" id="Слой_1" xmlns="http://www.w3.org/2000/svg" xmlns:xlink="http://www.w3.org/1999/xlink" x="0px" y="0px"
	 viewBox="0 0 64 64" style="enable-background:new 0 0 64 64;" xml:space="preserve">
<style type="text/css">
	.st0{fill:none;}
	.st1{fill:#1A7BD6;}
	.st2{fill:#23ACFF;}
	.st3{fill:#2099FF;}
	.st4{fill:#2098FE;}
	.st5{fill:#1A7CD7;}
	.st6{fill:#1460A6;}
</style>
<g>
	<polygon class="st0" points="31.5,33.7 24.8,33.7 24.8,37 24.9,37 31.6,33.8 31.6,33.7 	"/>
	<polygon class="st0" points="46.2,39.2 41.8,40.8 41.9,46.5 	"/>
	<polygon class="st1" points="41.9,46.5 42.2,58.8 62,33.9 61.7,33.9 46.2,39.2 	"/>
	<polygon class="st2" points="41.8,40.8 35.5,42.9 42.2,58.8 41.9,46.5 	"/>
	<polygon class="st2" points="31.6,33.8 39.9,29.9 39.7,28.9 39,22.7 31.6,33.7 	"/>
	<polygon class="st3" points="17.7,49 17.7,49 16.8,48.3 9.1,46.6 11.1,58.7 32.8,60.5 17.7,49 	"/>
	<polygon class="st4" points="12.5,22.7 2.1,22.7 13,31.6 	"/>
	<polygon class="st4" points="24.8,33.7 31.5,33.7 31.6,33.7 39,22.7 34.3,22.7 24.8,27.5 	"/>
	<polygon class="st5" points="24.8,37 24.8,33.7 24.8,27.5 12.3,19.5 12.5,22.7 13,31.6 2.1,22.7 2,36.9 16.8,48.3 17.7,49 	"/>
	<polygon class="st5" points="32.8,60.5 39.3,53 29.4,45 17.7,49 	"/>
	<polygon class="st6" points="41.8,40.8 46.2,39.2 61.7,33.9 61.9,33.9 51.9,24.2 39.9,29.9 31.6,33.8 24.9,37 24.8,37 17.7,49 
		17.7,49 17.7,49 29.4,45 35.5,42.9 	"/>
	<polygon class="st6" points="34.3,22.7 44.8,17.4 52.2,21.9 51.8,3.5 29.6,3.7 35.7,8.2 12.3,19.5 24.8,27.5 	"/>
</g>
</svg>
